<svg width="126" height="26" viewBox="0 0 126 26" fill="none" xmlns="http://www.w3.org/2000/svg">
<path d="M15.3486 8.65338L15.377 8.73834L15.4668 8.73932L24.1738 8.81647L17.1758 13.9991L17.1035 14.0518L17.1309 14.1378L19.7461 22.4424L12.6562 17.3887L12.583 17.336L12.5107 17.3887L5.41895 22.4434L8.03613 14.1378L8.06348 14.0518L7.99121 13.9991L0.991211 8.81647L9.7002 8.73932L9.79004 8.73834L9.81836 8.65338L12.583 0.396545L15.3486 8.65338Z" fill="white" stroke="#840032" stroke-width="0.251667"/>
<path d="M40.5153 8.65332L40.5436 8.73828L40.6335 8.73926L49.3405 8.81641L42.3424 13.999L42.2702 14.0518L42.2975 14.1377L44.9128 22.4424L37.8229 17.3887L37.7497 17.3359L37.6774 17.3887L30.5856 22.4434L33.2028 14.1377L33.2301 14.0518L33.1579 13.999L26.1579 8.81641L34.8669 8.73926L34.9567 8.73828L34.985 8.65332L37.7497 0.396484L40.5153 8.65332Z" fill="white" stroke="#840032" stroke-width="0.251667"/>
<path d="M65.682 8.65332L65.7103 8.73828L65.8001 8.73926L74.5072 8.81641L67.5091 13.999L67.4369 14.0518L67.4642 14.1377L70.0794 22.4424L62.9896 17.3887L62.9164 17.3359L62.8441 17.3887L55.7523 22.4434L58.3695 14.1377L58.3968 14.0518L58.3246 13.999L51.3246 8.81641L60.0335 8.73926L60.1234 8.73828L60.1517 8.65332L62.9164 0.396484L65.682 8.65332Z" fill="white" stroke="#840032" stroke-width="0.251667"/>
<path d="M90.8486 8.65332L90.877 8.73828L90.9668 8.73926L99.6738 8.81641L92.6758 13.999L92.6035 14.0518L92.6309 14.1377L95.2461 22.4424L88.1562 17.3887L88.083 17.3359L88.0107 17.3887L80.9189 22.4434L83.5361 14.1377L83.5635 14.0518L83.4912 13.999L76.4912 8.81641L85.2002 8.73926L85.29 8.73828L85.3184 8.65332L88.083 0.396484L90.8486 8.65332Z" fill="white" stroke="#840032" stroke-width="0.251667"/>
<path d="M116.015 8.65332L116.044 8.73828L116.133 8.73926L124.84 8.81641L117.842 13.999L117.77 14.0518L117.798 14.1377L120.413 22.4424L113.323 17.3887L113.25 17.3359L113.177 17.3887L106.086 22.4434L108.703 14.1377L108.73 14.0518L108.658 13.999L101.658 8.81641L110.367 8.73926L110.457 8.73828L110.485 8.65332L113.25 0.396484L116.015 8.65332Z" fill="white" stroke="#840032" stroke-width="0.251667"/>
</svg>
