<svg width="126" height="26" viewBox="0 0 126 26" fill="none" xmlns="http://www.w3.org/2000/svg">
<path d="M15.3486 8.82011L15.377 8.90507L15.4668 8.90604L24.1738 8.98319L17.1758 14.1658L17.1035 14.2185L17.1309 14.3045L19.7461 22.6092L12.6562 17.5555L12.583 17.5027L12.5107 17.5555L5.41895 22.6101L8.03613 14.3045L8.06348 14.2185L7.99121 14.1658L0.991211 8.98319L9.7002 8.90604L9.79004 8.90507L9.81836 8.82011L12.583 0.563271L15.3486 8.82011Z" fill="#FFCA3A" stroke="#840032" stroke-width="0.251667"/>
<path d="M40.5153 8.82005L40.5436 8.90501L40.6335 8.90598L49.3405 8.98313L42.3424 14.1657L42.2702 14.2185L42.2975 14.3044L44.9128 22.6091L37.8229 17.5554L37.7497 17.5027L37.6774 17.5554L30.5856 22.6101L33.2028 14.3044L33.2301 14.2185L33.1579 14.1657L26.1579 8.98313L34.8669 8.90598L34.9567 8.90501L34.985 8.82005L37.7497 0.56321L40.5153 8.82005Z" fill="white" stroke="#840032" stroke-width="0.251667"/>
<path d="M65.682 8.82005L65.7103 8.90501L65.8001 8.90598L74.5072 8.98313L67.5091 14.1657L67.4369 14.2185L67.4642 14.3044L70.0794 22.6091L62.9896 17.5554L62.9164 17.5027L62.8441 17.5554L55.7523 22.6101L58.3695 14.3044L58.3968 14.2185L58.3246 14.1657L51.3246 8.98313L60.0335 8.90598L60.1234 8.90501L60.1517 8.82005L62.9164 0.56321L65.682 8.82005Z" fill="white" stroke="#840032" stroke-width="0.251667"/>
<path d="M90.8486 8.82005L90.877 8.90501L90.9668 8.90598L99.6738 8.98313L92.6758 14.1657L92.6035 14.2185L92.6309 14.3044L95.2461 22.6091L88.1562 17.5554L88.083 17.5027L88.0107 17.5554L80.9189 22.6101L83.5361 14.3044L83.5635 14.2185L83.4912 14.1657L76.4912 8.98313L85.2002 8.90598L85.29 8.90501L85.3184 8.82005L88.083 0.56321L90.8486 8.82005Z" fill="white" stroke="#840032" stroke-width="0.251667"/>
<path d="M116.015 8.82005L116.044 8.90501L116.133 8.90598L124.84 8.98313L117.842 14.1657L117.77 14.2185L117.798 14.3044L120.413 22.6091L113.323 17.5554L113.25 17.5027L113.177 17.5554L106.086 22.6101L108.703 14.3044L108.73 14.2185L108.658 14.1657L101.658 8.98313L110.367 8.90598L110.457 8.90501L110.485 8.82005L113.25 0.56321L116.015 8.82005Z" fill="white" stroke="#840032" stroke-width="0.251667"/>
</svg>
