<svg width="126" height="26" viewBox="0 0 126 26" fill="none" xmlns="http://www.w3.org/2000/svg">
<path d="M15.3486 8.98685L15.377 9.07182L15.4668 9.07279L24.1738 9.14994L17.1758 14.3326L17.1035 14.3853L17.1309 14.4712L19.7461 22.7759L12.6562 17.7222L12.583 17.6695L12.5107 17.7222L5.41895 22.7769L8.03613 14.4712L8.06348 14.3853L7.99121 14.3326L0.991211 9.14994L9.7002 9.07279L9.79004 9.07182L9.81836 8.98685L12.583 0.730019L15.3486 8.98685Z" fill="#FFCA3A" stroke="#840032" stroke-width="0.251667"/>
<path d="M40.5153 8.98679L40.5436 9.07175L40.6335 9.07273L49.3405 9.14988L42.3424 14.3325L42.2702 14.3852L42.2975 14.4712L44.9128 22.7759L37.8229 17.7221L37.7497 17.6694L37.6774 17.7221L30.5856 22.7768L33.2028 14.4712L33.2301 14.3852L33.1579 14.3325L26.1579 9.14988L34.8669 9.07273L34.9567 9.07175L34.985 8.98679L37.7497 0.729958L40.5153 8.98679Z" fill="#FFCA3A" stroke="#840032" stroke-width="0.251667"/>
<path d="M65.682 8.98679L65.7103 9.07175L65.8001 9.07273L74.5072 9.14988L67.5091 14.3325L67.4369 14.3852L67.4642 14.4712L70.0794 22.7759L62.9896 17.7221L62.9164 17.6694L62.8441 17.7221L55.7523 22.7768L58.3695 14.4712L58.3968 14.3852L58.3246 14.3325L51.3246 9.14988L60.0335 9.07273L60.1234 9.07175L60.1517 8.98679L62.9164 0.729958L65.682 8.98679Z" fill="white" stroke="#840032" stroke-width="0.251667"/>
<path d="M90.8486 8.98679L90.877 9.07175L90.9668 9.07273L99.6738 9.14988L92.6758 14.3325L92.6035 14.3852L92.6309 14.4712L95.2461 22.7759L88.1562 17.7221L88.083 17.6694L88.0107 17.7221L80.9189 22.7768L83.5361 14.4712L83.5635 14.3852L83.4912 14.3325L76.4912 9.14988L85.2002 9.07273L85.29 9.07175L85.3184 8.98679L88.083 0.729958L90.8486 8.98679Z" fill="white" stroke="#840032" stroke-width="0.251667"/>
<path d="M116.015 8.98679L116.044 9.07175L116.133 9.07273L124.84 9.14988L117.842 14.3325L117.77 14.3852L117.798 14.4712L120.413 22.7759L113.323 17.7221L113.25 17.6694L113.177 17.7221L106.086 22.7768L108.703 14.4712L108.73 14.3852L108.658 14.3325L101.658 9.14988L110.367 9.07273L110.457 9.07175L110.485 8.98679L113.25 0.729958L116.015 8.98679Z" fill="white" stroke="#840032" stroke-width="0.251667"/>
</svg>
