<svg width="126" height="26" viewBox="0 0 126 26" fill="none" xmlns="http://www.w3.org/2000/svg">
<path d="M15.3486 9.15358L15.377 9.23854L15.4668 9.23952L24.1738 9.31667L17.1758 14.4993L17.1035 14.552L17.1309 14.638L19.7461 22.9426L12.6562 17.8889L12.583 17.8362L12.5107 17.8889L5.41895 22.9436L8.03613 14.638L8.06348 14.552L7.99121 14.4993L0.991211 9.31667L9.7002 9.23952L9.79004 9.23854L9.81836 9.15358L12.583 0.896744L15.3486 9.15358Z" fill="#FFCA3A" stroke="#840032" stroke-width="0.251667"/>
<path d="M40.5153 9.15352L40.5436 9.23848L40.6335 9.23946L49.3405 9.3166L42.3424 14.4992L42.2702 14.552L42.2975 14.6379L44.9128 22.9426L37.8229 17.8889L37.7497 17.8361L37.6774 17.8889L30.5856 22.9436L33.2028 14.6379L33.2301 14.552L33.1579 14.4992L26.1579 9.3166L34.8669 9.23946L34.9567 9.23848L34.985 9.15352L37.7497 0.896683L40.5153 9.15352Z" fill="#FFCA3A" stroke="#840032" stroke-width="0.251667"/>
<path d="M65.682 9.15352L65.7103 9.23848L65.8001 9.23946L74.5072 9.3166L67.5091 14.4992L67.4369 14.552L67.4642 14.6379L70.0794 22.9426L62.9896 17.8889L62.9164 17.8361L62.8441 17.8889L55.7523 22.9436L58.3695 14.6379L58.3968 14.552L58.3246 14.4992L51.3246 9.3166L60.0335 9.23946L60.1234 9.23848L60.1517 9.15352L62.9164 0.896683L65.682 9.15352Z" fill="#FFCA3A" stroke="#840032" stroke-width="0.251667"/>
<path d="M90.8486 9.15352L90.877 9.23848L90.9668 9.23946L99.6738 9.3166L92.6758 14.4992L92.6035 14.552L92.6309 14.6379L95.2461 22.9426L88.1562 17.8889L88.083 17.8361L88.0107 17.8889L80.9189 22.9436L83.5361 14.6379L83.5635 14.552L83.4912 14.4992L76.4912 9.3166L85.2002 9.23946L85.29 9.23848L85.3184 9.15352L88.083 0.896683L90.8486 9.15352Z" fill="white" stroke="#840032" stroke-width="0.251667"/>
<path d="M116.015 9.15352L116.044 9.23848L116.133 9.23946L124.84 9.3166L117.842 14.4992L117.77 14.552L117.798 14.6379L120.413 22.9426L113.323 17.8889L113.25 17.8361L113.177 17.8889L106.086 22.9436L108.703 14.6379L108.73 14.552L108.658 14.4992L101.658 9.3166L110.367 9.23946L110.457 9.23848L110.485 9.15352L113.25 0.896683L116.015 9.15352Z" fill="white" stroke="#840032" stroke-width="0.251667"/>
</svg>
