<svg width="126" height="26" viewBox="0 0 126 26" fill="none" xmlns="http://www.w3.org/2000/svg">
<path d="M15.3486 9.32031L15.377 9.40527L15.4668 9.40625L24.1738 9.4834L17.1758 14.666L17.1035 14.7188L17.1309 14.8047L19.7461 23.1094L12.6562 18.0557L12.583 18.0029L12.5107 18.0557L5.41895 23.1104L8.03613 14.8047L8.06348 14.7188L7.99121 14.666L0.991211 9.4834L9.7002 9.40625L9.79004 9.40527L9.81836 9.32031L12.583 1.06348L15.3486 9.32031Z" fill="#FFCA3A" stroke="#840032" stroke-width="0.251667"/>
<path d="M40.5153 9.32025L40.5436 9.40521L40.6335 9.40619L49.3405 9.48334L42.3424 14.666L42.2702 14.7187L42.2975 14.8046L44.9128 23.1093L37.8229 18.0556L37.7497 18.0029L37.6774 18.0556L30.5856 23.1103L33.2028 14.8046L33.2301 14.7187L33.1579 14.666L26.1579 9.48334L34.8669 9.40619L34.9567 9.40521L34.985 9.32025L37.7497 1.06342L40.5153 9.32025Z" fill="#FFCA3A" stroke="#840032" stroke-width="0.251667"/>
<path d="M65.682 9.32025L65.7103 9.40521L65.8001 9.40619L74.5072 9.48334L67.5091 14.666L67.4369 14.7187L67.4642 14.8046L70.0794 23.1093L62.9896 18.0556L62.9164 18.0029L62.8441 18.0556L55.7523 23.1103L58.3695 14.8046L58.3968 14.7187L58.3246 14.666L51.3246 9.48334L60.0335 9.40619L60.1234 9.40521L60.1517 9.32025L62.9164 1.06342L65.682 9.32025Z" fill="#FFCA3A" stroke="#840032" stroke-width="0.251667"/>
<path d="M90.8486 9.32025L90.877 9.40521L90.9668 9.40619L99.6738 9.48334L92.6758 14.666L92.6035 14.7187L92.6309 14.8046L95.2461 23.1093L88.1562 18.0556L88.083 18.0029L88.0107 18.0556L80.9189 23.1103L83.5361 14.8046L83.5635 14.7187L83.4912 14.666L76.4912 9.48334L85.2002 9.40619L85.29 9.40521L85.3184 9.32025L88.083 1.06342L90.8486 9.32025Z" fill="#FFCA3A" stroke="#840032" stroke-width="0.251667"/>
<path d="M116.015 9.32025L116.044 9.40521L116.133 9.40619L124.84 9.48334L117.842 14.666L117.77 14.7187L117.798 14.8046L120.413 23.1093L113.323 18.0556L113.25 18.0029L113.177 18.0556L106.086 23.1103L108.703 14.8046L108.73 14.7187L108.658 14.666L101.658 9.48334L110.367 9.40619L110.457 9.40521L110.485 9.32025L113.25 1.06342L116.015 9.32025Z" fill="white" stroke="#840032" stroke-width="0.251667"/>
</svg>
