<svg width="126" height="26" viewBox="0 0 126 26" fill="none" xmlns="http://www.w3.org/2000/svg">
<path d="M15.3486 9.48705L15.377 9.57201L15.4668 9.57298L24.1738 9.65013L17.1758 14.8327L17.1035 14.8855L17.1309 14.9714L19.7461 23.2761L12.6562 18.2224L12.583 18.1697L12.5107 18.2224L5.41895 23.2771L8.03613 14.9714L8.06348 14.8855L7.99121 14.8327L0.991211 9.65013L9.7002 9.57298L9.79004 9.57201L9.81836 9.48705L12.583 1.23021L15.3486 9.48705Z" fill="#FFCA3A" stroke="#840032" stroke-width="0.251667"/>
<path d="M40.5153 9.48698L40.5436 9.57195L40.6335 9.57292L49.3405 9.65007L42.3424 14.8327L42.2702 14.8854L42.2975 14.9714L44.9128 23.276L37.8229 18.2223L37.7497 18.1696L37.6774 18.2223L30.5856 23.277L33.2028 14.9714L33.2301 14.8854L33.1579 14.8327L26.1579 9.65007L34.8669 9.57292L34.9567 9.57195L34.985 9.48698L37.7497 1.23015L40.5153 9.48698Z" fill="#FFCA3A" stroke="#840032" stroke-width="0.251667"/>
<path d="M65.682 9.48698L65.7103 9.57195L65.8001 9.57292L74.5072 9.65007L67.5091 14.8327L67.4369 14.8854L67.4642 14.9714L70.0794 23.276L62.9896 18.2223L62.9164 18.1696L62.8441 18.2223L55.7523 23.277L58.3695 14.9714L58.3968 14.8854L58.3246 14.8327L51.3246 9.65007L60.0335 9.57292L60.1234 9.57195L60.1517 9.48698L62.9164 1.23015L65.682 9.48698Z" fill="#FFCA3A" stroke="#840032" stroke-width="0.251667"/>
<path d="M90.8486 9.48698L90.877 9.57195L90.9668 9.57292L99.6738 9.65007L92.6758 14.8327L92.6035 14.8854L92.6309 14.9714L95.2461 23.276L88.1562 18.2223L88.083 18.1696L88.0107 18.2223L80.9189 23.277L83.5361 14.9714L83.5635 14.8854L83.4912 14.8327L76.4912 9.65007L85.2002 9.57292L85.29 9.57195L85.3184 9.48698L88.083 1.23015L90.8486 9.48698Z" fill="#FFCA3A" stroke="#840032" stroke-width="0.251667"/>
<path d="M116.015 9.48698L116.044 9.57195L116.133 9.57292L124.84 9.65007L117.842 14.8327L117.77 14.8854L117.798 14.9714L120.413 23.276L113.323 18.2223L113.25 18.1696L113.177 18.2223L106.086 23.277L108.703 14.9714L108.73 14.8854L108.658 14.8327L101.658 9.65007L110.367 9.57292L110.457 9.57195L110.485 9.48698L113.25 1.23015L116.015 9.48698Z" fill="#FFCA3A" stroke="#840032" stroke-width="0.251667"/>
</svg>
