<svg width="644" height="236" viewBox="0 0 644 236" fill="none" xmlns="http://www.w3.org/2000/svg">
<path d="M487.578 135.773C473.578 139.373 460.112 150.84 453.578 164.84C450.512 171.373 449.978 174.173 449.978 185.107C449.978 196.307 450.378 198.707 453.845 206.04C458.512 216.173 468.912 226.44 479.578 231.507C486.245 234.573 489.045 235.107 499.978 235.107C511.445 235.107 513.445 234.707 521.312 230.973C531.845 225.907 540.112 217.773 544.912 207.907C548.245 201.24 548.512 198.973 548.645 186.44C548.645 173.907 548.245 171.64 545.045 164.707C540.245 154.573 528.912 143.24 519.045 138.973C510.378 135.107 495.978 133.64 487.578 135.773Z" fill="black"/>
<path d="M117.045 136.307C102.512 140.44 91.8451 150.04 84.7785 164.973C81.1785 172.707 80.6451 175.107 80.7785 185.107C80.9118 199.373 84.3785 208.973 92.9118 218.573C104.378 231.24 117.178 236.573 133.845 235.507C163.445 233.64 185.045 206.573 179.978 178.173C176.778 161.107 165.178 145.907 149.978 138.973C140.912 134.84 126.245 133.64 117.045 136.307Z" fill="black"/>
<path d="M335.978 0.573364C289.312 4.97336 278.512 9.10669 215.578 46.7067C192.378 60.5734 176.778 68.9734 171.578 70.5734C167.045 71.9067 153.445 74.3067 141.312 75.7734C79.3118 83.64 34.3784 94.9734 19.9784 106.44C14.1118 111.107 8.91177 120.04 5.71177 130.973C4.6451 134.707 2.77844 138.84 1.71177 140.04C-3.22156 145.507 3.4451 186.973 9.8451 191.107C13.9784 193.773 37.3118 198.173 53.4451 199.107L67.7118 200.04V186.973C67.7118 167.907 72.6451 154.573 84.7784 141.107C103.978 119.907 139.178 115.773 164.245 131.907C182.778 143.907 194.645 167.907 193.045 190.44L192.512 198.44H311.845C377.578 198.44 432.645 198.84 434.245 199.24C437.045 200.04 437.178 199.773 436.378 190.973C432.912 148.707 470.912 114.04 510.645 122.973C524.112 125.907 533.578 130.973 542.779 140.04C555.845 152.973 563.978 174.84 561.712 191.373C561.045 196.04 561.312 197.107 563.045 197.107C567.045 197.107 603.312 188.84 613.312 185.64C630.779 180.04 634.779 177.373 639.312 168.44C642.779 161.507 643.312 158.84 643.712 146.84C644.245 134.707 643.978 132.84 641.445 129.773C639.978 127.773 637.978 122.573 637.178 118.173C635.712 110.573 635.445 110.173 632.112 110.973C624.378 112.84 612.245 113.373 609.712 112.04C607.978 111.107 606.512 108.04 605.445 103.107C604.512 98.9734 603.978 95.3734 604.245 94.9734C604.645 94.7067 609.578 92.9734 615.445 91.24C621.178 89.5067 627.845 87.24 630.112 86.1734L634.245 84.44L632.645 76.7067C631.845 72.44 630.245 68.1734 629.178 67.1067C628.112 65.9067 619.712 64.1734 608.378 62.5734C576.112 58.04 571.312 56.3067 535.978 37.5067C472.512 3.90669 454.512 -0.493301 378.778 0.0400238C357.845 0.0400238 338.512 0.440033 335.978 0.573364ZM364.912 18.7067C364.512 20.44 361.978 32.5734 359.312 45.7734C356.512 58.9734 353.978 70.1734 353.445 70.7067C352.778 71.5067 212.112 74.5734 211.045 73.7734C209.445 72.7067 262.778 37.3734 274.645 31.5067C296.912 20.7067 307.578 18.7067 361.845 15.9067C365.045 15.7734 365.445 16.1734 364.912 18.7067ZM412.245 17.1067C438.112 18.5734 453.045 21.24 461.045 25.9067C467.578 29.7734 490.645 47.9067 497.045 54.3067C501.845 59.24 502.378 62.1734 499.045 66.3067C496.645 69.24 495.845 69.24 435.445 70.44C401.712 71.1067 373.978 71.5067 373.712 71.3734C373.445 71.1067 375.178 58.44 377.578 43.3734L381.845 15.7734H385.845C388.112 15.7734 399.978 16.44 412.245 17.1067ZM65.3118 115.64C65.3118 119.107 53.8451 132.973 49.4451 134.707C44.9118 136.44 14.1118 137.907 14.9118 136.307C15.1784 135.64 17.0451 131.64 19.0451 127.373C21.0451 123.107 23.4451 119.373 24.3784 119.107C26.6451 118.173 57.1784 113.507 61.7118 113.24C64.3784 113.107 65.3118 113.773 65.3118 115.64Z" fill="#840032"/>
</svg>
