<svg width="623" height="104" viewBox="0 0 623 104" fill="none" xmlns="http://www.w3.org/2000/svg">
<path d="M284.544 65.2051V101.205H294.278H303.878V65.2051V29.2051H294.278H284.544V65.2051Z" fill="black"/>
<path d="M31.7443 2.005C17.4776 6.27167 6.01094 18.2717 1.74427 32.805C0.144272 38.2717 -0.255728 44.1383 0.144272 55.0717C0.544272 67.8717 1.21094 71.0717 4.41094 78.1383C8.81094 87.7383 16.9443 96.005 26.2776 100.272C35.4776 104.538 56.4109 104.538 65.8776 100.138C74.9443 96.005 82.1443 88.805 86.6776 79.205C92.6776 66.9383 92.4109 66.5383 80.0109 66.5383C69.6109 66.5383 69.4776 66.5383 68.8109 70.405C67.7443 75.4717 61.6109 82.5383 56.2776 84.6717C51.0776 86.9383 41.4776 87.0717 36.2776 85.0717C26.4109 81.3383 20.9443 71.605 20.1443 56.2717C18.8109 31.3383 28.4109 17.3383 46.9443 17.205C50.5443 17.205 55.6109 18.1383 58.1443 19.3383C62.9443 21.7383 69.2109 29.605 69.2109 33.4717C69.2109 35.605 70.5443 35.8717 79.8776 35.8717H90.4109L88.6776 29.8717C82.6776 10.005 68.1443 -0.261665 46.6776 0.00499725C41.8776 0.00499725 35.0776 0.938332 31.7443 2.005Z" fill="black"/>
<path d="M432.411 2.53827C405.744 11.2049 393.478 48.1383 407.211 78.2716C412.811 90.6716 421.211 97.7383 434.544 101.738C460.811 109.472 486.144 96.4049 492.944 71.4716L494.278 66.5383H484.144H473.878L470.544 73.6049C466.278 82.5383 459.744 86.5383 449.211 86.5383C434.811 86.5383 425.344 77.7383 422.411 61.2049C419.611 44.9383 423.878 30.0049 433.611 22.0049C437.611 18.8049 440.144 17.8716 446.544 17.4716C450.944 17.2049 456.011 17.2049 457.744 17.7383C462.811 18.9383 470.144 26.0049 471.878 31.2049L473.478 35.8716H483.344C488.811 35.8716 493.211 35.3383 493.211 34.5383C493.211 30.8049 487.211 18.2716 483.211 13.4716C476.011 5.0716 466.278 0.938271 452.144 0.404938C443.078 0.00493622 438.811 0.404938 432.411 2.53827Z" fill="#840032"/>
<path d="M283.878 9.87166V18.5383H293.878H303.878V9.87166V1.205H293.878H283.878V9.87166Z" fill="black"/>
<path d="M337.878 2.80508C329.211 5.87174 323.878 13.8717 323.878 23.8717V29.2051H317.878H311.878V36.5384V43.8717H317.878H323.878V72.5384V101.205H333.211H342.544V72.5384V43.8717H350.544H358.544V36.5384V29.2051H350.544C342.944 29.2051 342.544 29.0717 342.544 26.0051C342.544 20.6717 346.678 17.0717 353.611 16.2717L359.878 15.4717V8.40508V1.20507L350.944 1.33841C345.878 1.33841 340.144 2.00507 337.878 2.80508Z" fill="black"/>
<path d="M369.211 9.87166V18.5383H378.544H387.878V9.87166V1.205H378.544H369.211V9.87166Z" fill="black"/>
<path d="M239.878 18.805V29.205H233.878H227.878V36.5384V43.8717H233.878H239.878V66.1384C239.878 84.805 240.278 89.3384 242.278 93.205C245.611 100.005 251.744 102.672 263.211 102.272L272.544 101.872L272.944 94.2717L273.344 86.6717L267.878 86.805C258.811 86.9384 258.544 86.1384 258.544 63.7384V43.8717H265.878H273.211V36.5384V29.205H265.878H258.544V19.3384V9.4717L249.211 8.93836L239.878 8.53837V18.805Z" fill="black"/>
<path d="M123.878 27.7384C107.878 32.9384 98.5443 46.805 98.5443 65.205C98.5443 87.7384 113.611 103.872 134.544 103.872C147.211 103.872 160.411 95.8717 164.678 85.605C167.478 78.9384 167.211 78.5384 158.411 78.5384C150.944 78.5384 150.011 78.805 146.011 83.205C142.011 87.3384 140.811 87.8717 134.944 87.8717C127.478 87.8717 122.544 84.9384 119.211 78.5384C115.078 70.405 114.678 70.5384 142.678 70.5384H168.278L167.611 59.4717C166.544 43.8717 162.144 35.8717 151.211 30.1384C145.344 27.205 129.744 25.7384 123.878 27.7384ZM145.478 44.805C146.811 46.2717 148.544 49.605 149.211 52.2717L150.278 57.205H133.744C120.678 57.205 117.211 56.805 117.211 55.3384C117.211 52.5384 122.944 44.6717 126.544 42.805C131.211 40.405 142.144 41.4717 145.478 44.805Z" fill="black"/>
<path d="M522.811 29.0717C512.278 32.6717 505.211 40.6717 505.211 49.205C505.211 51.605 506.011 51.8717 514.278 51.8717H523.344L524.544 47.4717C527.744 36.6717 547.878 38.6717 547.878 49.8717C547.878 54.1384 545.744 55.0717 529.878 57.8717C522.544 59.205 514.278 61.3384 511.611 62.6717C500.811 68.1384 498.411 84.5384 506.678 95.0717C515.078 105.738 534.811 105.872 546.278 95.4717L549.211 92.805V96.9384V101.205H558.278H567.211L566.811 74.9384C566.544 60.405 565.878 46.405 565.211 43.8717C561.478 29.7384 541.211 22.6717 522.811 29.0717ZM546.544 80.005C544.278 85.205 537.478 89.205 530.678 89.205C524.011 89.205 519.878 85.605 519.878 79.8717C519.878 74.805 525.344 71.0717 535.078 69.7384C538.811 69.3384 543.078 68.405 544.544 67.8717C546.811 67.0717 547.211 67.4717 547.611 71.605C547.878 74.1384 547.344 77.8717 546.544 80.005Z" fill="#840032"/>
<path d="M208.544 29.7384C206.278 30.6717 202.811 33.4717 200.811 35.7384L197.211 40.1384V34.6717V29.2051H187.878H178.544V65.2051V101.205H187.878H197.211V80.1384C197.211 62.2717 197.611 58.5384 199.744 54.5384C202.678 48.9384 207.611 46.2717 215.478 46.0051L221.211 45.8717V36.8051V27.8717H216.944C214.544 28.0051 210.678 28.8051 208.544 29.7384Z" fill="black"/>
<path d="M609.878 29.7384C607.611 30.6717 604.144 33.4717 602.144 35.7384L598.544 40.1384V34.6717V29.2051H589.211H579.878V65.2051V101.205H589.211H598.544V79.3384C598.544 58.9384 598.678 57.3384 601.611 53.0717C604.811 48.2717 610.944 45.4717 618.278 45.3384L622.544 45.2051V36.5384V27.8717H618.278C615.878 28.0051 612.011 28.8051 609.878 29.7384Z" fill="#840032"/>
<path d="M369.211 65.2051V101.205H378.544H387.878V65.2051V29.2051H378.544H369.211V65.2051Z" fill="black"/>
</svg>
