<svg width="744" height="181" viewBox="0 0 744 181" fill="none" xmlns="http://www.w3.org/2000/svg">
<path d="M522.667 102.636V133.969H530.667H538.667V102.636V71.3022H530.667H522.667V102.636Z" fill="black"/>
<path d="M65.3333 0.768829C52 1.96883 20.6667 9.16882 7.6 13.9688L0 16.7688V55.0355C0 76.1022 0.666667 96.9022 1.33333 101.302C3.6 115.435 9.46667 125.035 25.8667 141.435C46 161.569 72 180.635 79.4667 180.635C86.5333 180.635 127.333 149.035 140 133.835C154.133 116.769 156.267 108.235 155.733 69.7022L155.333 43.3022L138.533 62.3688C129.2 72.7688 112.8 91.4355 101.867 103.835L82 126.369L63.0667 106.502L44 86.6355V72.1022C44 58.5022 44.1333 57.7022 46.2667 59.4355C47.6 60.5022 55.0667 67.1688 63.0667 74.2355C70.9333 81.4355 77.8667 87.3022 78.4 87.3022C79.8667 87.3022 156.267 18.5022 156.267 17.1688C156.133 14.2355 111.733 2.76883 95.3333 1.30215C89.4667 0.902161 83.2 0.235489 81.3333 0.102158C79.4667 -0.164505 72.2667 0.102158 65.3333 0.768829Z" fill="#840032"/>
<path d="M217.867 48.1022C209.333 51.1689 202 58.3689 197.067 68.3689C192.933 76.7689 192.667 78.1022 192.667 91.3022C192.667 104.502 192.933 105.969 197.067 114.236C204.4 129.302 216 135.969 234 135.836C252.4 135.569 265.733 125.569 270.8 108.369L271.867 104.636H262.8H253.867L251.467 109.836C246.8 120.502 231.467 124.636 220.933 118.102C213.333 113.436 210 105.036 210 90.6356C210 76.9022 212.8 69.7022 220.133 64.5022C230.4 57.1689 246.8 60.9022 251.733 71.5689L254 76.5022L262.533 76.6356H270.933L270.133 72.9022C267.333 61.1689 257.467 50.2356 246.933 47.3022C240 45.4356 224.4 45.8356 217.867 48.1022Z" fill="black"/>
<path d="M496.4 47.3022C486.8 49.5689 481.333 56.5022 481.333 66.6355C481.333 71.1689 481.2 71.3022 476 71.3022H470.667V77.3022V83.3022H476H481.333V108.636V133.969H489.333H497.333V108.636V83.3022H504.667H512V77.3022V71.3022H504.667C497.733 71.3022 497.333 71.1689 497.333 67.9689C497.333 62.9022 501.733 59.3022 508 59.3022H513.333V52.6355V45.9689L507.067 46.1022C503.467 46.2355 498.667 46.6355 496.4 47.3022Z" fill="black"/>
<path d="M446.4 53.3022L446 60.6355H453.733H461.333V53.3022V45.9688H454.133H446.933L446.4 53.3022Z" fill="black"/>
<path d="M522.667 53.3022V60.6355H530.667H538.667V53.3022V45.9688H530.667H522.667V53.3022Z" fill="black"/>
<path d="M404 61.5688V71.3021H398.667H393.333V77.3021V83.3021H398.667H404V103.569C404 121.435 404.4 124.502 406.667 128.235C409.467 132.769 415.6 135.302 424.267 135.302C432.133 135.302 433.333 134.369 433.333 127.835C433.333 122.235 433.2 121.969 429.2 121.969C420.4 121.969 420 121.169 420 101.302V83.3021H426.667H433.333V77.3021V71.3021H426.667H420V62.1021V52.9021L412 52.3688L404 51.9688V61.5688Z" fill="black"/>
<path d="M576.667 48.1022C559.6 54.1022 549.467 72.9022 551.067 95.4356C552.8 121.169 567.467 135.836 591.333 135.836C610.933 135.836 624.267 126.236 629.467 108.369L630.533 104.636H621.333C612.667 104.636 612.267 104.769 610.933 108.236C609.333 112.902 603.2 119.169 599.467 119.969C584.933 123.436 574.4 117.836 569.867 104.369C566.933 95.4356 567.867 80.7689 571.733 73.0356C576.267 64.3689 581.6 61.3022 592.267 61.3022C600.267 61.3022 601.6 61.7022 605.2 65.1689C607.333 67.1689 609.867 70.6356 610.667 72.7689C612.267 76.5022 612.667 76.6356 620.8 76.6356H629.333L628.533 72.9022C625.6 60.9022 617.733 51.8356 606.8 47.9689C599.6 45.4356 583.867 45.5689 576.667 48.1022Z" fill="#840032"/>
<path d="M302 69.8355C292.667 72.2355 286.533 77.1688 281.867 85.9688C280 89.5688 279.333 93.4355 279.333 102.635C279.333 115.169 280.933 120.235 287.2 127.035C299.6 140.769 325.2 138.502 334.8 122.769C338.8 116.102 338.267 115.302 329.333 115.302C324.8 115.302 321.333 115.835 321.333 116.635C321.333 118.635 313.2 123.302 309.6 123.302C304.8 123.302 298.933 119.702 296.667 115.302C292.533 107.302 292.4 107.302 316.8 107.302H339.067L338.4 97.4355C337.6 84.6355 333.333 76.7688 324.8 72.7688C318.267 69.5688 308 68.2355 302 69.8355ZM318.533 84.2355C320.133 85.5688 321.867 88.6355 322.533 90.9021L323.867 95.3021H309.2C292.533 95.3021 291.333 94.3688 299.2 86.5021C303.067 82.6355 304.667 81.9688 309.733 81.9688C313.467 81.9688 316.8 82.9021 318.533 84.2355Z" fill="black"/>
<path d="M659.067 69.8355C649.2 72.3688 642.133 78.9021 640.533 86.9021L639.733 91.3021H647.467C655.067 91.3021 655.467 91.0355 657.333 86.9021C661.467 78.1021 676.133 79.1688 677.067 88.3688C677.6 93.5688 676.267 94.1021 660.267 96.6355C643.6 99.1688 637.333 104.502 637.333 116.102C637.333 122.902 641.733 129.835 648 132.902C656.667 137.302 669.6 135.302 675.867 128.502L678.667 125.435V129.702V133.969H686.8C694.667 133.969 694.933 133.835 694.133 130.902C693.733 129.302 693.333 117.969 693.333 105.835C693.333 85.0355 693.2 83.4355 690.267 79.1688C688.667 76.6355 685.067 73.5688 682.4 72.2355C676.667 69.4355 665.333 68.2355 659.067 69.8355ZM677.467 106.235C678.133 114.235 675.867 118.902 670 121.435C660.667 125.302 653.333 122.502 653.333 115.302C653.333 110.369 655.333 109.035 665.467 106.769C676.8 104.369 677.333 104.369 677.467 106.235Z" fill="#840032"/>
<path d="M376.533 71.8355C374.267 72.9022 371.2 75.3022 369.6 77.3022L366.667 81.0355V76.1022V71.3022H358.667H350.667V102.636V133.969H358.533H366.533L366.933 113.836L367.333 93.7022L371.733 89.8355C375.067 86.7689 377.333 85.9689 382 85.9689H388V77.9689C388 70.1022 387.867 69.9689 384.4 69.9689C382.267 70.1022 378.8 70.9022 376.533 71.8355Z" fill="black"/>
<path d="M446.667 102.636V133.969H454H461.333V102.636V71.3022H454H446.667V102.636Z" fill="black"/>
<path d="M732.533 71.8355C730.267 72.9022 727.2 75.3022 725.6 77.3022L722.667 81.0355V76.1022V71.3022H714.667H706.667V102.636V133.969H714.533H722.533L722.933 113.836L723.333 93.7022L727.733 89.8355C731.067 86.7689 733.333 85.9689 738 85.9689H744V77.9689C744 70.1022 743.867 69.9689 740.4 69.9689C738.267 70.1022 734.8 70.9022 732.533 71.8355Z" fill="#840032"/>
</svg>
