<svg width="222" height="197" viewBox="0 0 222 197" fill="none" xmlns="http://www.w3.org/2000/svg">
<path d="M220 45L190.107 78.2468L220 109H1V45H220Z" fill="url(#paint0_linear_395_7223)" stroke="#840032"/>
<path d="M77.0914 195.378L63.5165 178.206L43.6609 189.71L71.4385 85.4805L104.869 91.1479L77.0914 195.378Z" fill="url(#paint1_linear_395_7223)" stroke="url(#paint2_linear_395_7223)"/>
<path d="M73.0697 182.126L65.6658 168.983L52.9821 178.72L75.1892 95.3929L95.2768 98.7983L73.0697 182.126Z" fill="url(#paint3_linear_395_7223)" stroke="url(#paint4_linear_395_7223)"/>
<path d="M111.088 195.378L124.663 178.206L144.518 189.71L116.741 85.4805L83.3103 91.1479L111.088 195.378Z" fill="url(#paint5_linear_395_7223)" stroke="url(#paint6_linear_395_7223)"/>
<path d="M115.11 182.126L122.514 168.983L135.197 178.72L112.99 95.3929L92.9026 98.7983L115.11 182.126Z" fill="url(#paint7_linear_395_7223)" stroke="url(#paint8_linear_395_7223)"/>
<path d="M94.5918 6.65625C95.1868 6.00336 96.2147 6.00326 96.8096 6.65625L106.927 17.7607C107.058 17.9049 107.261 17.9595 107.447 17.9004L121.762 13.3428C122.603 13.0747 123.493 13.5882 123.682 14.4512L126.892 29.127C126.933 29.3176 127.083 29.4661 127.273 29.5078L141.948 32.7178C142.811 32.9065 143.326 33.7969 143.058 34.6387L138.499 48.9521C138.44 49.1382 138.494 49.3421 138.639 49.4736L149.743 59.5908C150.396 60.1858 150.396 61.2136 149.743 61.8086L138.639 71.9258C138.494 72.0573 138.44 72.2612 138.499 72.4473L143.058 86.7617C143.325 87.6034 142.811 88.4929 141.948 88.6816L127.273 91.8916C127.083 91.9333 126.933 92.0826 126.892 92.2734L123.682 106.948C123.493 107.811 122.603 108.326 121.762 108.058L107.447 103.499C107.261 103.44 107.058 103.495 106.927 103.639L96.8096 114.743C96.2146 115.396 95.1868 115.396 94.5918 114.743L84.4746 103.639C84.3431 103.494 84.1392 103.44 83.9531 103.499L69.6387 108.058C68.797 108.325 67.9075 107.811 67.7188 106.948L64.5088 92.2734C64.4671 92.0826 64.3178 91.9333 64.127 91.8916L49.4522 88.6816C48.5893 88.4929 48.075 87.6034 48.3428 86.7617L52.9014 72.4473C52.9606 72.2611 52.9061 72.0573 52.7617 71.9258L41.6572 61.8086C41.0042 61.2136 41.0042 60.1858 41.6572 59.5908L52.7617 49.4736C52.9061 49.3421 52.9606 49.1382 52.9014 48.9521L48.3428 34.6387C48.0747 33.7969 48.5891 32.9065 49.4522 32.7178L64.127 29.5078C64.3177 29.4661 64.467 29.3176 64.5088 29.127L67.7188 14.4512C67.9075 13.5882 68.797 13.0748 69.6387 13.3428L83.9531 17.9004C84.1393 17.9596 84.3431 17.9051 84.4746 17.7607L94.5918 6.65625Z" fill="#D3AF37" stroke="#840032"/>
<path d="M107.334 12.9991C108.078 12.5226 109.07 12.7884 109.475 13.5729L115.675 25.5646C115.764 25.7377 115.947 25.843 116.141 25.8342L129.625 25.2071C130.508 25.166 131.235 25.8924 131.194 26.7749L130.567 40.2585C130.558 40.4536 130.663 40.6364 130.837 40.7261L142.827 46.9246C143.612 47.3303 143.879 48.3235 143.402 49.0672L136.117 60.4312C136.011 60.5956 136.011 60.8066 136.117 60.971L143.401 72.3345C143.878 73.0782 143.612 74.071 142.827 74.4767L130.837 80.6753C130.663 80.765 130.558 80.9478 130.567 81.1429L131.194 94.627C131.235 95.5094 130.508 96.2354 129.626 96.1944L116.142 95.5679C115.947 95.5588 115.764 95.6644 115.674 95.8379L109.476 107.829C109.07 108.613 108.077 108.879 107.334 108.402L95.9696 101.117C95.8054 101.012 95.595 101.012 95.4307 101.117L84.0661 108.403C83.3225 108.879 82.3306 108.613 81.9249 107.829L75.7255 95.8371C75.6357 95.664 75.4536 95.5586 75.2588 95.5675L61.7748 96.1946C60.8923 96.2357 60.1652 95.5093 60.2062 94.6268L60.8336 81.1432C60.8426 80.9481 60.7371 80.7653 60.5636 80.6756L48.573 74.4761C47.7883 74.0704 47.5225 73.0785 47.9993 72.3348L55.2844 60.9708C55.3897 60.8064 55.3898 60.5953 55.2845 60.4309L47.9988 49.0672C47.5221 48.3235 47.7881 47.3307 48.5728 46.925L60.5642 40.7266C60.7376 40.6369 60.8431 40.454 60.834 40.259L60.2069 26.7749C60.1658 25.8924 60.8922 25.1653 61.7747 25.2063L75.2582 25.8338C75.4534 25.8428 75.6362 25.7373 75.7259 25.5638L81.9243 13.5729C82.33 12.7882 83.3229 12.5227 84.0666 12.9995L95.4306 20.2847C95.5949 20.3898 95.8053 20.3896 95.9695 20.2845L107.334 12.9991Z" fill="#840032" stroke="#840032"/>
<path d="M95.7001 23.0286C116.505 23.0286 133.372 39.895 133.372 60.7004C133.372 81.5057 116.505 98.3713 95.7001 98.3713C74.8951 98.3712 58.0294 81.5056 58.0292 60.7004C58.0292 39.8951 74.895 23.0287 95.7001 23.0286Z" fill="white" stroke="#840032"/>
<path d="M80.1499 63.2446C78.9524 64.4039 77.755 65.5632 76.5575 66.7225C77.3893 67.5219 78.2081 68.3017 79.045 69.0967C82.5513 72.0906 84.6661 75.3453 87.4832 79.1114L89.0251 81.5283L90.6479 79.0118C98.4767 65.1276 106.039 50.9173 115.471 38.021C116.188 37.2499 116.856 36.0397 118.003 35.9544C116.822 35.961 116.065 37.1355 115.283 37.8559C104.863 50.1159 96.2899 63.7369 87.4193 77.0815L90.584 76.9819C88.277 73.3381 85.6276 68.8637 82.4389 65.7735C81.6648 64.9235 80.9143 64.0943 80.1499 63.2446Z" fill="url(#paint9_linear_395_7223)"/>
<defs>
<linearGradient id="paint0_linear_395_7223" x1="1" y1="77" x2="220" y2="77" gradientUnits="userSpaceOnUse">
<stop stop-color="#D3AF37"/>
<stop offset="0.528846" stop-color="#E9D79B"/>
<stop offset="1" stop-color="#D3AF37"/>
</linearGradient>
<linearGradient id="paint1_linear_395_7223" x1="114.155" y1="121.857" x2="96.203" y2="227.752" gradientUnits="userSpaceOnUse">
<stop stop-color="#D3AF37"/>
<stop offset="0.5" stop-color="#E9D79B"/>
<stop offset="1" stop-color="#D3AF37"/>
</linearGradient>
<linearGradient id="paint2_linear_395_7223" x1="114.155" y1="121.857" x2="96.203" y2="227.752" gradientUnits="userSpaceOnUse">
<stop offset="1" stop-color="#840032"/>
</linearGradient>
<linearGradient id="paint3_linear_395_7223" x1="85.233" y1="97.0956" x2="70.8808" y2="181.755" gradientUnits="userSpaceOnUse">
<stop stop-color="#D3AF37"/>
<stop offset="0.5" stop-color="#E9D79B"/>
<stop offset="1" stop-color="#D3AF37"/>
</linearGradient>
<linearGradient id="paint4_linear_395_7223" x1="99.3816" y1="122.786" x2="85.0293" y2="207.445" gradientUnits="userSpaceOnUse">
<stop stop-color="#840032"/>
</linearGradient>
<linearGradient id="paint5_linear_395_7223" x1="74.0239" y1="121.857" x2="91.9763" y2="227.752" gradientUnits="userSpaceOnUse">
<stop stop-color="#D3AF37"/>
<stop offset="0.5" stop-color="#E9D79B"/>
<stop offset="1" stop-color="#D3AF37"/>
</linearGradient>
<linearGradient id="paint6_linear_395_7223" x1="74.0239" y1="121.857" x2="91.9763" y2="227.752" gradientUnits="userSpaceOnUse">
<stop offset="1" stop-color="#840032"/>
</linearGradient>
<linearGradient id="paint7_linear_395_7223" x1="102.946" y1="97.0956" x2="117.299" y2="181.755" gradientUnits="userSpaceOnUse">
<stop stop-color="#D3AF37"/>
<stop offset="0.5" stop-color="#E9D79B"/>
<stop offset="1" stop-color="#D3AF37"/>
</linearGradient>
<linearGradient id="paint8_linear_395_7223" x1="88.7979" y1="122.786" x2="103.15" y2="207.445" gradientUnits="userSpaceOnUse">
<stop stop-color="#840032"/>
</linearGradient>
<linearGradient id="paint9_linear_395_7223" x1="74.0817" y1="56.2748" x2="125.345" y2="56.2748" gradientUnits="userSpaceOnUse">
<stop offset="1" stop-color="#840032"/>
</linearGradient>
</defs>
</svg>
