<svg width="123" height="118" viewBox="0 0 123 118" fill="none" xmlns="http://www.w3.org/2000/svg">
<path d="M121 39.4387L104.62 59.3055L121 77.6823H1V39.4387H121Z" fill="url(#paint0_linear_395_4516)" stroke="#840032"/>
<path d="M48.2407 116.749L40.1289 106.488L28.264 113.362L44.8627 51.0792L64.8394 54.4658L48.2407 116.749Z" fill="url(#paint1_linear_395_4516)" stroke="url(#paint2_linear_395_4516)"/>
<path d="M45.8374 108.83L41.4132 100.976L33.8339 106.795L47.1039 57.0024L59.1074 59.0374L45.8374 108.83Z" fill="url(#paint3_linear_395_4516)" stroke="url(#paint4_linear_395_4516)"/>
<path d="M68.5552 116.749L76.667 106.488L88.5318 113.362L71.9332 51.0792L51.9565 54.4658L68.5552 116.749Z" fill="url(#paint5_linear_395_4516)" stroke="url(#paint6_linear_395_4516)"/>
<path d="M70.9587 108.83L75.383 100.976L82.9622 106.795L69.6922 57.0024L57.6887 59.0374L70.9587 108.83Z" fill="url(#paint7_linear_395_4516)" stroke="url(#paint8_linear_395_4516)"/>
<path d="M58.252 4.16846C58.8469 3.51551 59.8748 3.51545 60.4697 4.16846L66.0439 10.2866C66.1755 10.431 66.3793 10.4855 66.5654 10.4263L74.4521 7.91455C75.2938 7.64689 76.1834 8.16108 76.3721 9.02393L78.1406 17.1099C78.1824 17.3006 78.3317 17.45 78.5225 17.4917L86.6084 19.2593C87.4712 19.4482 87.9848 20.3385 87.7168 21.1802L85.2051 29.0669C85.1458 29.253 85.2004 29.4568 85.3447 29.5884L91.4629 35.1626C92.1159 35.7576 92.1159 36.7854 91.4629 37.3804L85.3447 42.9546C85.2004 43.0861 85.1458 43.29 85.2051 43.4761L87.7168 51.3628C87.9848 52.2045 87.4712 53.0948 86.6084 53.2837L78.5225 55.0513C78.3317 55.093 78.1824 55.2424 78.1406 55.4331L76.3721 63.519C76.1834 64.3819 75.2938 64.8961 74.4521 64.6284L66.5654 62.1167C66.3793 62.0574 66.1755 62.112 66.0439 62.2563L60.4697 68.3745C59.8748 69.0275 58.8469 69.0275 58.252 68.3745L52.6777 62.2563C52.5462 62.112 52.3424 62.0575 52.1562 62.1167L44.2695 64.6284C43.4278 64.8965 42.5374 64.3821 42.3486 63.519L40.5801 55.4331C40.5383 55.2425 40.3899 55.093 40.1992 55.0513L32.1133 53.2837C31.2503 53.095 30.7359 52.2045 31.0039 51.3628L33.5156 43.4761C33.5749 43.2899 33.5204 43.0862 33.376 42.9546L27.2578 37.3804C26.6048 36.7854 26.6048 35.7576 27.2578 35.1626L33.376 29.5884C33.5204 29.4568 33.5749 29.253 33.5156 29.0669L31.0039 21.1802C30.736 20.3384 31.2503 19.448 32.1133 19.2593L40.1992 17.4917C40.3899 17.4499 40.5383 17.3005 40.5801 17.1099L42.3486 9.02393C42.5374 8.16091 43.4278 7.64653 44.2695 7.91455L52.1562 10.4263C52.3424 10.4855 52.5462 10.431 52.6777 10.2866L58.252 4.16846Z" fill="#D3AF37" stroke="#840032"/>
<path d="M65.8316 7.83662C66.5753 7.35982 67.5681 7.62584 67.9738 8.41062L71.3563 14.9544C71.446 15.1279 71.6288 15.2333 71.8239 15.2243L79.1828 14.8819C80.0651 14.8411 80.7912 15.568 80.7502 16.4504L80.4082 23.8089C80.3993 24.0039 80.5051 24.1859 80.6785 24.2756L87.2221 27.6587C88.0067 28.0645 88.2723 29.0574 87.7956 29.8011L83.8199 36.0019C83.7145 36.1663 83.7145 36.3773 83.8198 36.5418L87.7956 42.743C88.2724 43.4867 88.0064 44.4795 87.2216 44.8852L80.6776 48.2687C80.5045 48.3584 80.3991 48.5405 80.408 48.7353L80.7504 56.0943C80.7915 56.9766 80.065 57.7037 79.1826 57.6628L71.8244 57.3199C71.6292 57.3108 71.4464 57.4164 71.3567 57.5899L67.9736 64.1335C67.568 64.9182 66.576 65.1839 65.8323 64.7073L59.6302 60.7322C59.4657 60.6268 59.2548 60.6267 59.0903 60.7321L52.8891 64.7079C52.1455 65.1845 51.1526 64.9185 50.7469 64.1339L47.3644 57.5901C47.2746 57.4166 47.0919 57.3112 46.8968 57.3203L39.5391 57.662C38.6566 57.703 37.9295 56.9766 37.9705 56.0942L38.3125 48.7356C38.3215 48.5406 38.2167 48.358 38.0434 48.2682L31.4995 44.886C30.7148 44.4804 30.4484 43.4872 30.9251 42.7435L34.9011 36.5417C35.0062 36.3774 35.006 36.1671 34.9009 36.0028L30.9253 29.8006C30.4487 29.0568 30.7146 28.064 31.4993 27.6583L38.0431 24.2758C38.2165 24.1861 38.322 24.0033 38.3129 23.8082L37.9703 16.4503C37.9292 15.5678 38.6565 14.8409 39.539 14.882L46.8975 15.2239C47.0923 15.2328 47.2743 15.1278 47.364 14.9546L50.7471 8.41098C51.1527 7.6262 52.1459 7.35978 52.8896 7.83657L59.0905 11.8123C59.2549 11.9177 59.4659 11.9178 59.6303 11.8124L65.8316 7.83662Z" fill="#840032" stroke="#840032"/>
<path d="M59.3606 13.5596C71.9039 13.5596 82.0724 23.7281 82.0725 36.2715C82.0725 48.815 71.904 58.9834 59.3606 58.9834C46.8172 58.9834 36.6487 48.815 36.6487 36.2715C36.6488 23.728 46.8172 13.5596 59.3606 13.5596Z" fill="white" stroke="#840032"/>
<path d="M50.791 37.0924C49.5936 38.2517 48.3962 39.411 47.1987 40.5703C47.7093 41.0378 48.2123 41.4939 48.725 41.9579C49.7529 42.9024 50.6504 43.6278 51.3623 44.5348C52.1556 45.5256 52.9918 46.6377 53.8263 47.702L55.289 50.1143L56.991 47.6024C61.4595 39.1973 65.7749 30.5872 71.2121 22.7529C71.6277 22.282 72.0093 21.5516 72.6875 21.4848C71.9747 21.4729 71.5044 22.1676 71.0243 22.5878C64.5991 29.7858 59.2728 37.8065 53.7624 45.6722L56.9271 45.5725C56.2268 44.4129 55.5867 43.2941 54.8344 42.0737C54.0337 40.7495 52.9528 39.6188 52.119 38.6347C51.669 38.1157 51.2343 37.6103 50.791 37.0924Z" fill="url(#paint9_linear_395_4516)"/>
<defs>
<linearGradient id="paint0_linear_395_4516" x1="1" y1="58.5605" x2="121" y2="58.5605" gradientUnits="userSpaceOnUse">
<stop stop-color="#D3AF37"/>
<stop offset="0.528846" stop-color="#E9D79B"/>
<stop offset="1" stop-color="#D3AF37"/>
</linearGradient>
<linearGradient id="paint1_linear_395_4516" x1="70.3885" y1="72.8162" x2="59.6609" y2="136.095" gradientUnits="userSpaceOnUse">
<stop stop-color="#D3AF37"/>
<stop offset="0.5" stop-color="#E9D79B"/>
<stop offset="1" stop-color="#D3AF37"/>
</linearGradient>
<linearGradient id="paint2_linear_395_4516" x1="70.3885" y1="72.8162" x2="59.6609" y2="136.095" gradientUnits="userSpaceOnUse">
<stop offset="1" stop-color="#840032"/>
</linearGradient>
<linearGradient id="paint3_linear_395_4516" x1="53.1057" y1="58.0199" x2="44.5294" y2="108.608" gradientUnits="userSpaceOnUse">
<stop stop-color="#D3AF37"/>
<stop offset="0.5" stop-color="#E9D79B"/>
<stop offset="1" stop-color="#D3AF37"/>
</linearGradient>
<linearGradient id="paint4_linear_395_4516" x1="61.5602" y1="73.3715" x2="52.984" y2="123.96" gradientUnits="userSpaceOnUse">
<stop stop-color="#840032"/>
</linearGradient>
<linearGradient id="paint5_linear_395_4516" x1="46.4074" y1="72.8162" x2="57.135" y2="136.095" gradientUnits="userSpaceOnUse">
<stop stop-color="#D3AF37"/>
<stop offset="0.5" stop-color="#E9D79B"/>
<stop offset="1" stop-color="#D3AF37"/>
</linearGradient>
<linearGradient id="paint6_linear_395_4516" x1="46.4074" y1="72.8162" x2="57.135" y2="136.095" gradientUnits="userSpaceOnUse">
<stop offset="1" stop-color="#840032"/>
</linearGradient>
<linearGradient id="paint7_linear_395_4516" x1="63.6905" y1="58.0199" x2="72.2667" y2="108.608" gradientUnits="userSpaceOnUse">
<stop stop-color="#D3AF37"/>
<stop offset="0.5" stop-color="#E9D79B"/>
<stop offset="1" stop-color="#D3AF37"/>
</linearGradient>
<linearGradient id="paint8_linear_395_4516" x1="55.2359" y1="73.3715" x2="63.8122" y2="123.96" gradientUnits="userSpaceOnUse">
<stop stop-color="#840032"/>
</linearGradient>
<linearGradient id="paint9_linear_395_4516" x1="46.4421" y1="33.6274" x2="77.075" y2="33.6274" gradientUnits="userSpaceOnUse">
<stop offset="1" stop-color="#840032"/>
</linearGradient>
</defs>
</svg>
